<svg xmlns="http://www.w3.org/2000/svg" xmlns:xlink="http://www.w3.org/1999/xlink" viewBox="0 0 393.68 271.07">
  <defs>
    <linearGradient id="a" x1="1865.7" y1="2183.71" x2="1915.51" y2="2199.89" gradientUnits="userSpaceOnUse">
      <stop offset="0" stop-color="#3405a9"/>
      <stop offset="0.31" stop-color="#343bff"/>
    </linearGradient>
    <linearGradient id="b" x1="1875.88" y1="2064.49" x2="1889.88" y2="2251.16" gradientUnits="userSpaceOnUse">
      <stop offset="0.05" stop-color="#d4d7ff"/>
      <stop offset="0.73" stop-color="#d4d7ff" stop-opacity="0"/>
    </linearGradient>
    <linearGradient id="c" x1="1824.38" y1="2198.33" x2="1853.7" y2="2180.4" gradientUnits="userSpaceOnUse">
      <stop offset="0" stop-color="#2205e8"/>
      <stop offset="0.31" stop-color="#343bff"/>
    </linearGradient>
    <linearGradient id="d" x1="1682.11" y1="2200.75" x2="1708.27" y2="2158.66" gradientUnits="userSpaceOnUse">
      <stop offset="0" stop-color="#ff34d8"/>
      <stop offset="1" stop-color="#ce34d8"/>
    </linearGradient>
    <linearGradient id="e" x1="1776.02" y1="2178.98" x2="1775.77" y2="2249.48" gradientUnits="userSpaceOnUse">
      <stop offset="0.41" stop-color="#37f4c2"/>
      <stop offset="0.58" stop-color="#37f0c2"/>
      <stop offset="0.75" stop-color="#37e4c2"/>
      <stop offset="0.88" stop-color="#37d5c2"/>
    </linearGradient>
    <linearGradient id="f" x1="1841.49" y1="2054.08" x2="1855.49" y2="2240.74" xlink:href="#b"/>
  </defs>
  <title>Data-and-analytics</title>
  <g>
    <g>
      <g>
        <path d="M1924,2139h-81.83l39.38,112.5a2.63,2.63,0,0,0,5,0l40-109A2.63,2.63,0,0,0,1924,2139Z" transform="translate(-1591.64 -2126.47)" style="fill: url(#a)"/>
        <path d="M1899.23,2206.59h4.33l0.67-1.87v-34.63q3.7-.25,7.5-0.31v13.93l6.74-18.88c-1.5,0-3-.08-4.51-0.08-20.41,0-39.64,4.19-54.15,11.81a63.49,63.49,0,0,0-10.11,6.52l4.53,12.93v-10.22a59.22,59.22,0,0,1,7.5-4.68v25.49h5v-27.9q3.56-1.56,7.5-2.89v30.79h5v-32.32c2.42-.68,4.92-1.28,7.5-1.81v34.13h5v-35.06q3.67-.6,7.5-1v36.08Z" transform="translate(-1591.64 -2126.47)" style="opacity: 0.4;fill: url(#b)"/>
        <path d="M1890.3,2139h-83a2.67,2.67,0,0,0-2.52,3.55l38.67,110.46a2.67,2.67,0,0,0,5,0Z" transform="translate(-1591.64 -2126.47)" style="fill: url(#c)"/>
      </g>
      <path d="M1666.29,2251.71a5.08,5.08,0,0,0,5.55,5.06,59.25,59.25,0,0,0,0-118,5.08,5.08,0,0,0-5.55,5.06v107.86Z" transform="translate(-1591.64 -2126.47)" style="fill: url(#d)"/>
      <path d="M1814.62,2265h-79.68a2.78,2.78,0,0,1-2.62-3.7l38.5-110a4.69,4.69,0,0,1,8.83-.06L1819,2258.69A4.69,4.69,0,0,1,1814.62,2265Z" transform="translate(-1591.64 -2126.47)" style="fill: url(#e)"/>
      <path d="M1685.81,2182.78l47.71,0.37a4.26,4.26,0,0,0,4.29-4.55,56.49,56.49,0,0,0-51.23-52.1,4.26,4.26,0,0,0-4.62,4.21l-0.37,47.78A4.26,4.26,0,0,0,1685.81,2182.78Z" transform="translate(-1591.64 -2126.47)" style="fill: #ff61d8"/>
      <path d="M172.87,110.92h2.93a1.86,1.86,0,0,1,1.86,1.86V139a0,0,0,0,1,0,0H171a0,0,0,0,1,0,0V112.78A1.86,1.86,0,0,1,172.87,110.92Z" style="fill: #78ffd8"/>
      <path d="M182.81,96.63h2.93a1.86,1.86,0,0,1,1.86,1.86V139a0,0,0,0,1,0,0H181a0,0,0,0,1,0,0V98.49A1.86,1.86,0,0,1,182.81,96.63Z" style="fill: #78ffd8"/>
      <path d="M192.38,104.32h2.93a1.86,1.86,0,0,1,1.86,1.86V139a0,0,0,0,1,0,0h-6.65a0,0,0,0,1,0,0V106.18A1.86,1.86,0,0,1,192.38,104.32Z" style="fill: #78ffd8"/>
    </g>
    <g>
      <g>
        <g>
          <path d="M1606.41,2364.59h-14.55a1.51,1.51,0,0,1-.21-0.86,1.7,1.7,0,0,1,.37-1.07l3.59-.43v-29.7h-3.1a0.71,0.71,0,0,1-.86-0.75,5.32,5.32,0,0,1,.27-1.28l0.11-.43h14.39a16.26,16.26,0,0,1,8.38,2.09,14.24,14.24,0,0,1,5.54,6,22.38,22.38,0,0,1,0,18.41,14.24,14.24,0,0,1-5.54,6A16.26,16.26,0,0,1,1606.41,2364.59Zm-7.81-2.46h7.81a12.28,12.28,0,0,0,6.85-1.85,11.92,11.92,0,0,0,4.36-5.19,20.57,20.57,0,0,0,0-15.55,12,12,0,0,0-4.36-5.16,12.28,12.28,0,0,0-6.85-1.85h-7.81v29.59Z" transform="translate(-1591.64 -2126.47)" style="fill: #3627ff"/>
          <path d="M1651.52,2363.85l-5.3,1a5,5,0,0,1-1.5-1.18l0.27-3.85a12.33,12.33,0,0,1-4.2,3.91,11,11,0,0,1-5.48,1.39,8.48,8.48,0,0,1-6-2.09,7,7,0,0,1-2.27-5.41,6.81,6.81,0,0,1,3-5.91q3-2.11,8.54-2.11,1.23,0,2.84.11t3.37,0.37V2348q0-8.24-7.44-8.24a13.89,13.89,0,0,0-4.09.67,14.94,14.94,0,0,0-4,1.9,3.11,3.11,0,0,1-.7-0.94,2.36,2.36,0,0,1-.32-1,17.1,17.1,0,0,1,4.47-2.22,14.89,14.89,0,0,1,4.63-.78q10.22,0,10.22,10.65v14.13h4.07a1.89,1.89,0,0,1,.16.75A2,2,0,0,1,1651.52,2363.85Zm-6.69-9.31v-2.14q-1.71-.21-3.32-0.35t-2.89-.13a11.91,11.91,0,0,0-6.42,1.42,4.68,4.68,0,0,0-2.19,4.2,5,5,0,0,0,1.53,3.8,5.63,5.63,0,0,0,4,1.45,9,9,0,0,0,4.47-1.18,10.36,10.36,0,0,0,3.45-3A6.78,6.78,0,0,0,1644.83,2354.53Z" transform="translate(-1591.64 -2126.47)" style="fill: #3627ff"/>
          <path d="M1657.84,2356.67v-16.48h-4.07a2.17,2.17,0,0,1-.16-0.75,2.07,2.07,0,0,1,.32-1.07l3.91-.48,0.86-5.62a4.24,4.24,0,0,1,1-.11,6.55,6.55,0,0,1,1,.11v5.57h7.38a0.71,0.71,0,0,1,.86.75,5.26,5.26,0,0,1-.21,1.12l-0.11.48h-7.92v15.41a22.15,22.15,0,0,0,.29,4,3.44,3.44,0,0,0,1.23,2.22,4.9,4.9,0,0,0,2.92.7,16.5,16.5,0,0,0,2.17-.16,18.1,18.1,0,0,0,2.38-.48,5,5,0,0,1,.59,2,11.69,11.69,0,0,1-2.73.86,16.34,16.34,0,0,1-3.21.32,6.27,6.27,0,0,1-4.84-1.82Q1657.84,2361.49,1657.84,2356.67Z" transform="translate(-1591.64 -2126.47)" style="fill: #3627ff"/>
          <path d="M1697.7,2363.85l-5.3,1a5,5,0,0,1-1.5-1.18l0.27-3.85a12.33,12.33,0,0,1-4.2,3.91,11,11,0,0,1-5.48,1.39,8.48,8.48,0,0,1-6-2.09,7,7,0,0,1-2.27-5.41,6.81,6.81,0,0,1,3-5.91q3-2.11,8.54-2.11,1.23,0,2.84.11t3.37,0.37V2348q0-8.24-7.44-8.24a13.89,13.89,0,0,0-4.09.67,14.94,14.94,0,0,0-4,1.9,3.11,3.11,0,0,1-.7-0.94,2.36,2.36,0,0,1-.32-1,17.1,17.1,0,0,1,4.47-2.22,14.89,14.89,0,0,1,4.63-.78q10.22,0,10.22,10.65v14.13h4.07a1.89,1.89,0,0,1,.16.75A2,2,0,0,1,1697.7,2363.85Zm-6.69-9.31v-2.14q-1.71-.21-3.32-0.35t-2.89-.13a11.91,11.91,0,0,0-6.42,1.42,4.68,4.68,0,0,0-2.19,4.2,5,5,0,0,0,1.53,3.8,5.63,5.63,0,0,0,4,1.45,9,9,0,0,0,4.47-1.18,10.36,10.36,0,0,0,3.45-3A6.78,6.78,0,0,0,1691,2354.53Z" transform="translate(-1591.64 -2126.47)" style="fill: #3627ff"/>
          <path d="M1746.61,2347.52l-4.92.43a19.87,19.87,0,0,1-1,6.31,16.87,16.87,0,0,1-2.68,5.08,31,31,0,0,0,4.52,2.33,18.92,18.92,0,0,0,4.47,1.26,2.9,2.9,0,0,1,.16.91,4.34,4.34,0,0,1-.27,1.28,19.86,19.86,0,0,1-5.24-1.23,30.9,30.9,0,0,1-5.35-2.62,14.89,14.89,0,0,1-4.74,2.84,16.38,16.38,0,0,1-5.81,1q-5.35,0-8.45-2.73a9.39,9.39,0,0,1-3.1-7.44q0-6.26,6.21-10.7a16.45,16.45,0,0,1-1.66-6.8,7.67,7.67,0,0,1,2.22-5.75,8.1,8.1,0,0,1,5.91-2.17,15.48,15.48,0,0,1,2.92.29,17.88,17.88,0,0,1,2.7.72,7.3,7.3,0,0,1,1,1.61l0.05,6.26a2.31,2.31,0,0,1-.8.16,1.8,1.8,0,0,1-1-.32l-1.55-6.1a10.27,10.27,0,0,0-2.78-.37,5.72,5.72,0,0,0-4.23,1.5,5.64,5.64,0,0,0-1.5,4.17,13.33,13.33,0,0,0,1.12,5.11,28.19,28.19,0,0,0,3.08,5.46,42.09,42.09,0,0,0,9.93,9.87,14.94,14.94,0,0,0,2.25-4.41,17.61,17.61,0,0,0,.8-5.43h-4.17a0.71,0.71,0,0,1-.86-0.75,5.13,5.13,0,0,1,.21-1.12l0.11-.43h12.58A1.79,1.79,0,0,1,1746.61,2347.52ZM1734,2359.78a44.21,44.21,0,0,1-7.14-6.21,37.44,37.44,0,0,1-5.38-7.28,10.5,10.5,0,0,0-4.23,8.67,7.23,7.23,0,0,0,2.38,5.7,9.12,9.12,0,0,0,6.29,2.11A11.62,11.62,0,0,0,1734,2359.78Z" transform="translate(-1591.64 -2126.47)" style="fill: #3627ff"/>
          <path d="M1796.86,2364.59h-10.43a1.51,1.51,0,0,1-.21-0.86,1.7,1.7,0,0,1,.38-1.07l3.58-.43-3.42-8.88h-14.55l-3.32,8.78h3.1a0.71,0.71,0,0,1,.86.75,5.36,5.36,0,0,1-.27,1.28l-0.11.43h-10.27a1.52,1.52,0,0,1-.21-0.86,1.7,1.7,0,0,1,.37-1.07l3.59-.43,12.52-32.27a6.5,6.5,0,0,1,2.35,0l12.47,32.16h3.1a0.71,0.71,0,0,1,.86.75,5.36,5.36,0,0,1-.27,1.28Zm-11-13.65-6.37-16.8-6.37,16.8h12.74Z" transform="translate(-1591.64 -2126.47)" style="fill: #3627ff"/>
          <path d="M1828.86,2364.59h-10.33a1.79,1.79,0,0,1,.16-1.77l3.64-.43v-15.2q0-7.55-6.37-7.54a7.93,7.93,0,0,0-4.63,1.47,10.8,10.8,0,0,0-3.4,3.91,11.24,11.24,0,0,0-1.28,5.32v11.93h3.1a0.71,0.71,0,0,1,.86.75,5.2,5.2,0,0,1-.21,1.12l-0.11.43H1800a2.17,2.17,0,0,1-.16-0.75,2.21,2.21,0,0,1,.32-1l3.64-.43v-22h-4.07a1.88,1.88,0,0,1-.16-0.75,2,2,0,0,1,.32-1l5.3-1a5,5,0,0,1,1.5,1.18l-0.37,5.35a11.84,11.84,0,0,1,4.12-5,10.57,10.57,0,0,1,6-1.77,8.25,8.25,0,0,1,6.53,2.54q2.25,2.54,2.25,7.36v15.09h3.1a0.71,0.71,0,0,1,.86.75,5.26,5.26,0,0,1-.21,1.12Z" transform="translate(-1591.64 -2126.47)" style="fill: #3627ff"/>
          <path d="M1857.11,2363.85l-5.3,1a5,5,0,0,1-1.5-1.18l0.27-3.85a12.33,12.33,0,0,1-4.2,3.91,11,11,0,0,1-5.48,1.39,8.48,8.48,0,0,1-6-2.09,7,7,0,0,1-2.27-5.41,6.81,6.81,0,0,1,3-5.91q3-2.11,8.54-2.11,1.23,0,2.84.11t3.37,0.37V2348q0-8.24-7.44-8.24a13.89,13.89,0,0,0-4.09.67,14.94,14.94,0,0,0-4,1.9,3.11,3.11,0,0,1-.7-0.94,2.36,2.36,0,0,1-.32-1,17.1,17.1,0,0,1,4.47-2.22,14.89,14.89,0,0,1,4.63-.78q10.22,0,10.22,10.65v14.13h4.07a1.89,1.89,0,0,1,.16.75A2,2,0,0,1,1857.11,2363.85Zm-6.69-9.31v-2.14q-1.71-.21-3.32-0.35t-2.89-.13a11.91,11.91,0,0,0-6.42,1.42,4.68,4.68,0,0,0-2.19,4.2,5,5,0,0,0,1.53,3.8,5.63,5.63,0,0,0,4,1.45,9,9,0,0,0,4.47-1.18,10.36,10.36,0,0,0,3.45-3A6.78,6.78,0,0,0,1850.42,2354.53Z" transform="translate(-1591.64 -2126.47)" style="fill: #3627ff"/>
          <path d="M1871.78,2364.59h-11.4a2.17,2.17,0,0,1-.16-0.75,2.21,2.21,0,0,1,.32-1l4.17-.43v-31.14h-4.6a1.88,1.88,0,0,1-.16-0.75,2,2,0,0,1,.32-1l5.83-1a5,5,0,0,1,1.5,1.18v32.64h3.64a0.71,0.71,0,0,1,.86.75,5.2,5.2,0,0,1-.21,1.12Z" transform="translate(-1591.64 -2126.47)" style="fill: #3627ff"/>
          <path d="M1885.64,2364.75l-9.74-24.62h-3.1a0.71,0.71,0,0,1-.86-0.75,5.2,5.2,0,0,1,.21-1.12l0.11-.43h10.43a1.79,1.79,0,0,1-.16,1.77l-3.64.43,8.19,21.35,8.35-21.24h-3.1a0.71,0.71,0,0,1-.86-0.75,5.15,5.15,0,0,1,.21-1.12l0.11-.43h10.27a2.17,2.17,0,0,1,.16.75,2.2,2.2,0,0,1-.32,1l-3.64.43-9.47,23.12a32.86,32.86,0,0,1-3.24,6.07,14,14,0,0,1-4.33,4.12,13.48,13.48,0,0,1-6.23,1.74,2.57,2.57,0,0,1-.29-0.8,4.12,4.12,0,0,1-.08-0.75,3.38,3.38,0,0,1,.05-0.64,12.77,12.77,0,0,0,6.93-2.94A17,17,0,0,0,1885.64,2364.75Z" transform="translate(-1591.64 -2126.47)" style="fill: #3627ff"/>
          <path d="M1908.7,2356.67v-16.48h-4.07a2.17,2.17,0,0,1-.16-0.75,2.07,2.07,0,0,1,.32-1.07l3.91-.48,0.86-5.62a4.24,4.24,0,0,1,1-.11,6.55,6.55,0,0,1,1,.11v5.57H1919a0.71,0.71,0,0,1,.86.75,5.26,5.26,0,0,1-.21,1.12l-0.11.48h-7.92v15.41a22.15,22.15,0,0,0,.29,4,3.44,3.44,0,0,0,1.23,2.22,4.9,4.9,0,0,0,2.92.7,16.5,16.5,0,0,0,2.17-.16,18.1,18.1,0,0,0,2.38-.48,5,5,0,0,1,.59,2,11.69,11.69,0,0,1-2.73.86,16.34,16.34,0,0,1-3.21.32,6.27,6.27,0,0,1-4.84-1.82Q1908.7,2361.49,1908.7,2356.67Z" transform="translate(-1591.64 -2126.47)" style="fill: #3627ff"/>
          <path d="M1935.77,2364.59h-11.4a2.17,2.17,0,0,1-.16-0.75,2.21,2.21,0,0,1,.32-1l4.17-.43v-22h-4.33a1.88,1.88,0,0,1-.16-0.75,2,2,0,0,1,.32-1l5.57-1a5,5,0,0,1,1.5,1.18v23.55h3.64a0.71,0.71,0,0,1,.86.75,5.2,5.2,0,0,1-.21,1.12Zm-4-33.82a2.15,2.15,0,0,1-.64,1.63,2.84,2.84,0,0,1-3.53,0,2.39,2.39,0,0,1,0-3.26,2.84,2.84,0,0,1,3.53,0A2.15,2.15,0,0,1,1931.76,2330.77Z" transform="translate(-1591.64 -2126.47)" style="fill: #3627ff"/>
          <path d="M1958.94,2346.29l-1.23-5.67a14.36,14.36,0,0,0-5.3-.91,8.23,8.23,0,0,0-4.87,1.47,9.82,9.82,0,0,0-3.26,4,14.25,14.25,0,0,0-1.18,6q0,5.25,2.67,8.29a9.06,9.06,0,0,0,7.17,3.05,18.92,18.92,0,0,0,3.91-.43,12.78,12.78,0,0,0,3.42-1.18,3.47,3.47,0,0,1,.59.94,5.59,5.59,0,0,1,.32,1,19.4,19.4,0,0,1-4.17,1.61,17.89,17.89,0,0,1-4.55.59,12.05,12.05,0,0,1-6.53-1.74,11.74,11.74,0,0,1-4.33-4.87,18,18,0,0,1,0-14.61,11.47,11.47,0,0,1,10.81-6.61,19.92,19.92,0,0,1,3.85.4,14.29,14.29,0,0,1,3.37,1,7.35,7.35,0,0,1,1,1.61l0.11,6.1a2.28,2.28,0,0,1-.8.16A1.8,1.8,0,0,1,1958.94,2346.29Z" transform="translate(-1591.64 -2126.47)" style="fill: #3627ff"/>
          <path d="M1966.33,2361.76l-0.11-5.83a2,2,0,0,1,.8-0.16,1.8,1.8,0,0,1,1,.32l1.12,5.51a14.62,14.62,0,0,0,6,1.18,8.79,8.79,0,0,0,5.24-1.39,4.39,4.39,0,0,0,1.93-3.75,4.25,4.25,0,0,0-1.47-3.26,11.78,11.78,0,0,0-4.63-2.25,30.22,30.22,0,0,1-5.67-2.11,7.47,7.47,0,0,1-3-2.51,6.3,6.3,0,0,1-.88-3.4,5.87,5.87,0,0,1,2.43-5,10.91,10.91,0,0,1,6.66-1.82,22.27,22.27,0,0,1,4,.38,9.94,9.94,0,0,1,3.08,1,7.27,7.27,0,0,1,1,1.61l0.11,5.3a2.31,2.31,0,0,1-.8.16,1.81,1.81,0,0,1-1-.32l-1.12-4.92a14.49,14.49,0,0,0-5.08-.86q-6.37,0-6.37,4.5a3.6,3.6,0,0,0,.62,2.11,5.49,5.49,0,0,0,2.17,1.63,32.73,32.73,0,0,0,4.28,1.61,16.32,16.32,0,0,1,6.56,3.29,6.91,6.91,0,0,1-.62,10.38q-2.68,2-7.44,2a19.55,19.55,0,0,1-4.36-.48,12.65,12.65,0,0,1-3.5-1.28A7.2,7.2,0,0,1,1966.33,2361.76Z" transform="translate(-1591.64 -2126.47)" style="fill: #3627ff"/>
        </g>
        <g>
          <path d="M1727.69,2385.63h1.64l2.57,9.29h0l2.73-9.29h1.81l2.73,9.29h0l2.57-9.29h1.64l-3.38,11.63h-1.67l-2.81-9.49h0l-2.79,9.49h-1.67Z" transform="translate(-1591.64 -2126.47)" style="fill: #3627ff"/>
          <path d="M1747.92,2385.63h7.5v1.48h-5.93v3.47H1755V2392h-5.52v3.73h6.22v1.48h-7.8v-11.63Z" transform="translate(-1591.64 -2126.47)" style="fill: #3627ff"/>
          <path d="M1760.65,2385.63h4.06a7.5,7.5,0,0,1,2.16.28,5.74,5.74,0,0,1,1.61.75,4.76,4.76,0,0,1,1.13,1.08,5.76,5.76,0,0,1,.71,1.25,6.38,6.38,0,0,1,.38,1.28,6.77,6.77,0,0,1,.12,1.18,5.85,5.85,0,0,1-.41,2.16,5.46,5.46,0,0,1-1.21,1.86,6,6,0,0,1-2,1.31,7.16,7.16,0,0,1-2.75.49h-3.79v-11.63Zm1.58,10.15h2a6.52,6.52,0,0,0,1.9-.27,4.6,4.6,0,0,0,1.57-.81,3.9,3.9,0,0,0,1.07-1.36,4.3,4.3,0,0,0,.39-1.9,5.62,5.62,0,0,0-.18-1.31,3.92,3.92,0,0,0-.68-1.42,4.05,4.05,0,0,0-1.39-1.14,4.92,4.92,0,0,0-2.3-.47h-2.36v8.67Z" transform="translate(-1591.64 -2126.47)" style="fill: #3627ff"/>
          <path d="M1776,2385.63h2.07l6.41,9.56h0v-9.56h1.58v11.63h-2l-6.47-9.56h0v9.56H1776v-11.63Z" transform="translate(-1591.64 -2126.47)" style="fill: #3627ff"/>
          <path d="M1792.06,2385.63h7.5v1.48h-5.93v3.47h5.52V2392h-5.52v3.73h6.22v1.48h-7.8v-11.63Z" transform="translate(-1591.64 -2126.47)" style="fill: #3627ff"/>
          <path d="M1805.4,2394.82a2.59,2.59,0,0,0,1.09.94,3.26,3.26,0,0,0,1.37.3,2.79,2.79,0,0,0,.8-0.12,2.45,2.45,0,0,0,.75-0.37,2,2,0,0,0,.55-0.61,1.62,1.62,0,0,0,.21-0.84,1.26,1.26,0,0,0-.43-1,3.7,3.7,0,0,0-1.06-.59q-0.63-.24-1.38-0.46a5.61,5.61,0,0,1-1.38-.62,3.38,3.38,0,0,1-1.06-1.06,3.3,3.3,0,0,1-.43-1.8,3.1,3.1,0,0,1,.92-2.13,3.85,3.85,0,0,1,1.22-.8,4.56,4.56,0,0,1,1.8-.32,6.29,6.29,0,0,1,1.82.26,3.14,3.14,0,0,1,1.53,1.07l-1.28,1.17a2.13,2.13,0,0,0-.84-0.74,2.64,2.64,0,0,0-1.23-.28,3,3,0,0,0-1.09.17,2,2,0,0,0-.7.44,1.56,1.56,0,0,0-.37.58,1.79,1.79,0,0,0-.11.58,1.46,1.46,0,0,0,.43,1.13,3.31,3.31,0,0,0,1.06.64,12.75,12.75,0,0,0,1.38.44,6,6,0,0,1,1.38.55,3.22,3.22,0,0,1,1.06,1,2.8,2.8,0,0,1,.43,1.65,3.47,3.47,0,0,1-.32,1.51,3.33,3.33,0,0,1-.86,1.13,3.83,3.83,0,0,1-1.28.71,4.94,4.94,0,0,1-1.58.25,5.74,5.74,0,0,1-2.12-.39,3.49,3.49,0,0,1-1.59-1.21Z" transform="translate(-1591.64 -2126.47)" style="fill: #3627ff"/>
          <path d="M1816.88,2385.63h4.06a7.5,7.5,0,0,1,2.16.28,5.74,5.74,0,0,1,1.61.75,4.76,4.76,0,0,1,1.13,1.08,5.76,5.76,0,0,1,.71,1.25,6.38,6.38,0,0,1,.38,1.28,6.77,6.77,0,0,1,.12,1.18,5.85,5.85,0,0,1-.41,2.16,5.46,5.46,0,0,1-1.21,1.86,6,6,0,0,1-2,1.31,7.16,7.16,0,0,1-2.75.49h-3.79v-11.63Zm1.58,10.15h2a6.52,6.52,0,0,0,1.9-.27,4.6,4.6,0,0,0,1.57-.81,3.9,3.9,0,0,0,1.07-1.36,4.3,4.3,0,0,0,.39-1.9,5.62,5.62,0,0,0-.18-1.31,3.92,3.92,0,0,0-.68-1.42,4.05,4.05,0,0,0-1.39-1.14,4.92,4.92,0,0,0-2.3-.47h-2.36v8.67Z" transform="translate(-1591.64 -2126.47)" style="fill: #3627ff"/>
          <path d="M1835.91,2385.63h1.43l5,11.63h-1.84l-1.17-2.87h-5.54l-1.15,2.87h-1.84Zm2.82,7.37-2.17-5.34h0l-2.2,5.34h4.4Z" transform="translate(-1591.64 -2126.47)" style="fill: #3627ff"/>
          <path d="M1848.31,2392.29l-4.4-6.67h2l3.17,5.11,3.27-5.11h1.92l-4.4,6.67v5h-1.58v-5Z" transform="translate(-1591.64 -2126.47)" style="fill: #3627ff"/>
        </g>
      </g>
      <g>
        <line x1="128.65" y1="265.36" x2="0.38" y2="265.36" style="fill: none;stroke: #3627ff;stroke-miterlimit: 10;stroke-width: 1.32128083705902px"/>
        <line x1="392.83" y1="265.36" x2="269.56" y2="265.36" style="fill: none;stroke: #3627ff;stroke-miterlimit: 10;stroke-width: 1.32128083705902px"/>
      </g>
    </g>
    <path d="M1864.85,2196.17h4.33l0.67-1.87v-34.63q3.7-.25,7.5-0.31v13.93l6.74-18.88c-1.5,0-3-.08-4.51-0.08-20.41,0-39.64,4.19-54.15,11.81a63.49,63.49,0,0,0-10.11,6.52l4.53,12.93v-10.22a59.22,59.22,0,0,1,7.5-4.68v25.49h5v-27.9q3.56-1.56,7.5-2.89v30.79h5v-32.32c2.42-.68,4.92-1.28,7.5-1.81v34.13h5v-35.06q3.67-.6,7.5-1v36.08Z" transform="translate(-1591.64 -2126.47)" style="fill: url(#f)"/>
  </g>
</svg>
